<svg width="110" height="29" viewBox="0 0 110 29" xmlns="http://www.w3.org/2000/svg" xmlns:xlink="http://www.w3.org/1999/xlink">
    <defs>
        <path id="i0holpir7a" d="M0 0h17.31v22.308H0z"/>
    </defs>
    <g fill="none" fill-rule="evenodd">
        <g transform="translate(83.756)">
            <mask id="oyieort1tb" fill="#fff">
                <use xlink:href="#i0holpir7a"/>
            </mask>
            <path d="M8.734 0h8.568v7.026c0 2.345-.015 4.69.008 7.034l-.001.04-.07.061c-1.505 1.343-2.937 2.773-4.42 4.143-1.328 1.272-2.678 2.518-4 3.797-.102.079-.195.208-.336.202-.964.01-1.926 0-2.889.003-1.865-.002-3.73 0-5.594-.001 2.911-2.741 5.811-5.494 8.72-8.237 2.86.004 5.722 0 8.582.002-2.481-2.946-4.979-5.878-7.463-8.821H8.733L8.734 0" fill="#FFF" mask="url(#oyieort1tb)"/>
        </g>
        <path d="M7.135 5.404c2.017-.378 4.1-.548 6.131-.18.941.178 1.888.506 2.629 1.143.776.652 1.21 1.639 1.343 2.639.184 1.385-.017 2.785-.26 4.15-.524 3.05-1.034 6.103-1.567 9.152-1.622-.007-3.245.001-4.868-.006.562-3.319 1.137-6.636 1.703-9.956.105-.67.145-1.424-.242-2.014-.392-.605-1.128-.851-1.807-.903-1.086-.075-2.177.124-3.208.465-.708 4.138-1.41 8.276-2.124 12.412-1.622-.003-3.243 0-4.865 0v-.064C.9 17.02 1.793 11.798 2.69 6.576a31.582 31.582 0 0 1 4.445-1.172M23.796 15.332c-.896.883-.73 2.592.367 3.24.931.556 2.095.405 3.105.182.26-1.414.51-2.83.775-4.242-.678 0-1.357-.01-2.035.006-.788.052-1.635.235-2.212.814m-3.073-9.29c1.793-.563 3.657-.955 5.54-1.023 1.432-.005 2.885.117 4.25.58.816.284 1.619.711 2.168 1.397.541.674.767 1.547.81 2.399.056.944-.104 1.882-.273 2.807-.535 3.104-1.085 6.206-1.614 9.311-2.003.496-4.062.793-6.129.795-1.678-.033-3.407-.336-4.86-1.217-1.006-.607-1.798-1.595-2.055-2.753-.301-1.382-.11-2.931.75-4.084.905-1.217 2.37-1.858 3.81-2.19 1.768-.43 3.598-.34 5.402-.346.076-.622.287-1.346-.157-1.883-.536-.625-1.427-.697-2.194-.752-2.052-.148-4.087.272-6.058.798.2-1.28.418-2.557.61-3.839M40.804 9.907c-.479 2.65-.947 5.301-1.426 7.95a6.5 6.5 0 0 0 2.825.484c.9-.045 1.815-.348 2.475-.968.916-.844 1.325-2.068 1.559-3.248.176-1.015.361-2.098-.031-3.087-.26-.69-.86-1.22-1.566-1.445-1.256-.406-2.651-.223-3.836.314M36.4 6.51c2.234-.916 4.635-1.504 7.065-1.49 1.69.023 3.436.322 4.885 1.222 1.187.72 2.08 1.868 2.534 3.16.585 1.632.563 3.403.347 5.1-.241 1.772-.831 3.548-1.991 4.95-.961 1.186-2.32 2.03-3.793 2.457-2.196.636-4.57.571-6.754-.077-.436 2.389-.863 4.78-1.304 7.169h-5.003c1.34-7.496 2.67-14.995 4.014-22.491M57.911 15.278c-.91.832-.826 2.484.178 3.207.743.554 1.727.502 2.6.403.213-.044.451-.045.642-.158.26-1.405.515-2.81.767-4.218H60.34c-.854.015-1.774.175-2.429.766m-3.12-9.247c1.833-.548 3.724-.966 5.642-1.012 1.704.016 3.47.177 5.014.954.87.434 1.604 1.188 1.88 2.137.498 1.571.097 3.222-.17 4.797-.5 2.871-.996 5.743-1.499 8.614-2.05.495-4.153.807-6.265.786-1.667-.052-3.386-.367-4.813-1.273-.989-.62-1.746-1.624-1.978-2.776-.292-1.448-.043-3.074.939-4.22 1.008-1.176 2.524-1.756 4.007-2.05 1.655-.348 3.354-.257 5.034-.266.06-.563.256-1.177-.04-1.706-.288-.538-.92-.745-1.484-.843-2.316-.34-4.653.111-6.887.71.21-1.284.413-2.568.62-3.852M71.765 6.27c1.503-.99 3.373-1.296 5.158-1.245 1.82.043 3.69.484 5.158 1.582-.262 1.363-.505 2.73-.784 4.091-1.264-1.118-2.92-1.842-4.638-1.863-.605-.007-1.266.036-1.765.408-.547.405-.555 1.308-.013 1.721.576.448 1.33.536 2.005.768 1.328.431 2.698.965 3.662 1.998.744.784 1.041 1.883 1.009 2.934.023 1.464-.529 2.97-1.659 3.961-1.193 1.067-2.822 1.523-4.403 1.644-1.714.126-3.466-.053-5.087-.624-.825-.295-1.613-.706-2.286-1.263.253-1.378.5-2.757.753-4.135 1.395 1.088 3.014 2.01 4.818 2.204.774.071 1.624.101 2.31-.317.63-.37.796-1.348.254-1.856-.39-.346-.912-.483-1.4-.638-.89-.236-1.787-.476-2.62-.869-.926-.422-1.786-1.073-2.243-1.986-.528-1.07-.553-2.321-.323-3.47a4.815 4.815 0 0 1 2.094-3.044" fill="#FFF"/>
        <path d="M84.873 5.027c2.524-.013 5.05-.006 7.574-.003.37 0 .741-.002 1.112-.001 2.5 2.976 5.01 5.941 7.507 8.919-2.877-.002-5.755.003-8.631-.002-2.512-2.979-5.058-5.928-7.562-8.913" fill="#A6CE3A"/>
        <path d="m100.843 14.005.069-.063c2.313 2.748 4.548 5.57 6.854 8.326-.399.063-.8.03-1.2.037-2.413-.004-4.825.007-7.237-.006-.397-.357-.69-.84-1.055-1.239.851-2.353 1.757-4.688 2.569-7.055" fill="#A6CE3A"/>
        <path d="M101.07 7.252c2.418.004 4.837-.01 7.255.006-2.415 2.23-4.828 4.46-7.247 6.684-.022-2.23-.007-4.46-.008-6.69M96.626 18.068c1.49-1.364 2.928-2.788 4.44-4.126-.828 2.315-1.75 4.597-2.618 6.899-.529 1.412-1.094 2.81-1.606 4.229-.985.052-1.976.008-2.963.022-1.885 0-3.77.002-5.656 0 .356-1.022.77-2.022 1.147-3.037.967-.002 1.933.007 2.901-.003.142.007.235-.122.339-.201 1.326-1.273 2.683-2.515 4.016-3.783" fill="#019BDB"/>
        <path d="M108.065 9.166c-.003.177-.002.354.001.531.316-.036.943.089.995-.248.024-.428-.667-.25-.996-.283m-.296-.208c.501.031 1.218-.166 1.51.135.192.198.135.516-.132.687.301.21.102.557.295.815l-.373-.011c-.037-.198.073-.439-.08-.6-.204-.212-.627-.07-.93-.086.003.23.003.46.003.69l-.29.008c-.01-.546-.003-1.092-.003-1.638" fill="#FFF"/>
        <path d="M107.49 9.468c.087-.35.359-.64.69-.777.645-.281 1.43.175 1.546.858.167.694-.46 1.415-1.166 1.361-.714.006-1.277-.762-1.07-1.442m2.472-.034a1.325 1.325 0 0 0-.709-.9l-.023-.011c-.027-.013-.053-.027-.08-.039a1.493 1.493 0 0 0-.59-.119c-.03 0-.06.003-.09.005l-.039.003a1.3 1.3 0 0 0-.514.159 1.206 1.206 0 0 0-.403.333l-.046.06-.015.021c-.345.513-.336 1.269.093 1.738.027.033.057.064.087.094l.036.033a1.316 1.316 0 0 0 .13.101l.013.009c.032.021.064.041.098.06l.028.014a1.339 1.339 0 0 0 .156.07l.04.014a1.494 1.494 0 0 0 .38.073l.039.001h.067c.35-.004.697-.127.946-.377.192-.178.314-.42.396-.667a1.514 1.514 0 0 0 0-.675" fill="#FFF"/>
    </g>
</svg>
